<?xml version="1.0" encoding="UTF-8" standalone="no"?>
<!-- Created with Inkscape (http://www.inkscape.org/) -->
<svg
   xmlns:svg="http://www.w3.org/2000/svg"
   xmlns="http://www.w3.org/2000/svg"
   version="1.0"
   width="162.5"
   height="162.5"
   id="svg101">
  <defs
     id="defs13" />
  <path
     d="M 58.03445,46.63671 C 80.3908,28.19448 113.4585,31.33802 131.9395,53.66224 C 150.4206,75.98651 147.3347,109.0596 125.0426,127.5795"
     style="font-size:12px;fill:none;fill-opacity:0.19607795;fill-rule:evenodd;stroke:#4a4b4f;stroke-width:10.02554035;stroke-linecap:round;stroke-linejoin:round"
     id="path138" />
  <path
     d="M 140.75,137.2628 L 129.3459,124.6369"
     style="font-size:12px;fill:none;fill-rule:evenodd;stroke:#4a4b4f;stroke-width:10.02556038;stroke-linecap:round;stroke-linejoin:round"
     id="path139" />
  <path
     d="M 59.69945,44.40065 L 48.29519,30.55335"
     style="font-size:12px;fill:none;fill-rule:evenodd;stroke:#4a4b4f;stroke-width:10.02556038;stroke-linecap:round;stroke-linejoin:round"
     id="path140" />
  <path
     d="M 103.2794,34.62613 L 105.7232,24.03674"
     style="font-size:12px;fill:none;fill-rule:evenodd;stroke:#4a4b4f;stroke-width:10.02556038;stroke-linecap:round;stroke-linejoin:round"
     id="path141" />
  <path
     d="M 135.8625,56.21236 L 145.2301,49.28911"
     style="font-size:12px;fill:none;fill-rule:evenodd;stroke:#4a4b4f;stroke-width:10.02556038;stroke-linecap:round;stroke-linejoin:round"
     id="path142" />
  <path
     d="M 143.601,91.6466 L 155.8196,92.86843"
     style="font-size:12px;fill:none;fill-rule:evenodd;stroke:#4a4b4f;stroke-width:10.02556038;stroke-linecap:round;stroke-linejoin:round"
     id="path143" />
  <path
     d="M 31.98447,87.52021 L 100.6681,87.52021"
     style="font-size:12px;color:#000000;fill:none;fill-rule:evenodd;stroke:#ff7800;stroke-width:56.98843002;stroke-linecap:round;stroke-linejoin:round;stroke-dashoffset:0;stroke-opacity:0.669683;font-family:Bitstream Vera Sans"
     id="path1731" />
  <path
     d="M 41.66456,107.7156 C 41.66456,95.44603 32.77626,90.96832 22.7661,90.96832 C 30.44635,90.96832 39.76613,90.96832 39.93874,78.58875 C 39.76613,67.45794 30.36006,67.45794 22.50736,67.45794 L 22.59356,107.7156"
     style="font-size:12px;color:#000000;fill:none;fill-rule:evenodd;stroke:#000000;stroke-width:5.94753695;stroke-linecap:round;stroke-linejoin:round;stroke-dashoffset:0;font-family:Bitstream Vera Sans"
     id="path644" />
  <path
     d="M 77.67731,77.16444 C 77.33209,69.9157 73.70773,67.45512 66.8042,67.45512 C 60.07321,67.45512 56.10368,70.77862 56.27629,76.99183 C 56.27629,81.4177 61.454,84.52431 66.8042,84.52431 C 73.70773,84.52431 80.26611,89.41211 80.61126,96.14903 C 80.78387,102.5348 74.91585,107.7126 67.49457,107.7126 C 61.10874,107.7126 55.06811,102.5349 55.06818,96.66674"
     style="font-size:12px;color:#000000;fill:none;fill-rule:evenodd;stroke:#000000;stroke-width:5.94753695;stroke-linecap:round;stroke-linejoin:round;stroke-dashoffset:0;font-family:Bitstream Vera Sans"
     id="path645" />
  <path
     d="M 113.9517,77.16444 C 113.6065,69.9157 109.9821,67.45512 103.0786,67.45512 C 96.34761,67.45512 92.37808,70.77862 92.55069,76.99183 C 92.55069,81.4177 97.7284,84.52431 103.0786,84.52431 C 109.9821,84.52431 116.5405,89.41211 116.8857,96.14903 C 117.0583,102.5348 111.1903,107.7126 103.769,107.7126 C 97.38314,107.7126 91.34251,102.5349 91.34257,96.66674"
     style="font-size:12px;color:#000000;fill:none;fill-rule:evenodd;stroke:#000000;stroke-width:5.94753695;stroke-linecap:round;stroke-linejoin:round;stroke-dashoffset:0;font-family:Bitstream Vera Sans"
     id="path1843" />
</svg>
